<svg xmlns="http://www.w3.org/2000/svg" viewBox="0 0 480.008 480.008" xml:space="preserve">
  <path d="M319.64 114.26c.136-.584.36-1.632.36-2.256v-48c0-4.424-3.576-8-8-8s-8 3.576-8 8V99.98c-17.64-12.736-39.216-19.976-62.56-19.976h-.696c-17.592 0-34.128 4.2-48.744 11.832V56.004c0-4.424-3.584-8-8-8s-8 3.576-8 8v46.128c-25.536 19.768-41.992 51.672-41.768 86.384.376 58.872 48.392 107.488 107.184 107.488h.696c59.112 0 106.896-49.76 106.512-108.872-.176-28-11.216-53.872-28.984-72.872m-77.632 165.744h-.592c-50.016 0-90.864-41.328-91.184-91.416-.328-50.28 40.328-92.584 90.608-92.584h.592c50.016 0 90.864 41.328 91.184 91.416.328 50.28-40.32 92.584-90.608 92.584M184 .004c-4.416 0-8 3.576-8 8v16c0 4.424 3.584 8 8 8s8-3.576 8-8v-16c0-4.424-3.584-8-8-8m128 8c-4.424 0-8 3.576-8 8v16c0 4.424 3.576 8 8 8s8-3.576 8-8v-16c0-4.424-3.576-8-8-8m-216 176c-4.416 0-8 3.576-8 8v64c0 4.424 3.584 8 8 8s8-3.576 8-8v-64c0-4.424-3.584-8-8-8m0-48c-4.416 0-8 3.576-8 8v16c0 4.424 3.584 8 8 8s8-3.576 8-8v-16c0-4.424-3.584-8-8-8m304-24c-4.424 0-8 3.576-8 8v64c0 4.424 3.576 8 8 8s8-3.576 8-8v-64c0-4.424-3.576-8-8-8m0-48c-4.424 0-8 3.576-8 8v16c0 4.424 3.576 8 8 8s8-3.576 8-8v-16c0-4.424-3.576-8-8-8"/>
  <path d="m271.896 207.644-.056-7.992c-.04-6.416-2.568-12.424-7.136-16.928-4.568-4.496-10.856-7.088-17.016-6.872l-16 .152h-.048c-4.384 0-7.976-3.608-8-8l-.048-8.016c-.024-4.416 3.536-8.04 7.952-8.064l7.808-.056c.256.016.48.136.752.136h.048c.272 0 .504-.136.768-.16l22.608-.144c4.424-.032 7.984-3.48 7.952-7.896-.032-4.408-3.6-7.8-8-7.8h-.048l-15.384-.056-.048-7.92c-.024-4.4-3.608-8.024-8-8.024h-.048c-4.416.032-7.976 3.688-7.952 8.104l.048 7.896h-.608c-13.232 0-23.928 10.864-23.848 24.104l.048 8.024c.088 13.184 10.84 23.872 24.008 23.872h16.2c2.112 0 4.104.72 5.624 2.2 1.512 1.504 2.36 3.456 2.376 5.6l.056 7.968c.032 4.416-3.536 8.016-7.952 8.04l-32 .2c-4.416.032-7.976 3.632-7.952 8.048.024 4.4 3.608 7.944 8 7.944h.048l16-.104.048 8.16c.024 4.4 3.608 7.944 8 7.944h.048c4.416-.032 7.984-3.632 7.952-8.056l-.048-8.152c13.232-.088 23.928-10.912 23.848-24.152"/>
  <circle cx="184" cy="192.004" r="8"/>
  <circle cx="296" cy="192.004" r="8"/>
  <path d="M472 312.004h-88c-10.416 0-19.216 6.712-22.528 16h-40.048c-4.328 0-7.808 3.448-7.952 7.744l-66.744-15.144a24.35 24.35 0 0 0-14.416 1.12l-62.64 24.848c-8.088 3.208-14.016 9.72-16.456 17.592l-122.328-35.88c-7.456-2.168-15.28-.784-21.456 3.84C3.44 336.62 0 343.436 0 350.836v17.352c0 7.936 4.032 15.28 10.776 19.64l88.872 57.512a8.1 8.1 0 0 0 2.568 1.08l132.32 30.216c1.792.416 3.632.616 5.464.616 1.84 0 3.672-.2 5.464-.616l69.64-15.976c1.448 1.976 3.68 3.344 6.328 3.344h40.048c3.312 9.288 12.112 16 22.528 16h88c4.424 0 8-3.576 8-8v-152a8.005 8.005 0 0 0-8.008-8M311.496 445.076l-69.616 15.968a8.3 8.3 0 0 1-3.768 0L107.16 431.14l-87.696-56.752C17.296 372.98 16 370.668 16 368.18v-17.352c0-3.168 1.888-5.048 3.016-5.888a8.22 8.22 0 0 1 7.36-1.296l127.016 37.304c3.728 11.024 14.392 19.056 26.928 19.056H240c4.416 0 8-3.576 8-8s-3.584-8-8-8h-59.68c-6.792 0-12.32-5.256-12.32-11.68 0-4.752 2.976-9.016 7.584-10.848l62.64-24.864a8.4 8.4 0 0 1 4.976-.392l68.768 15.6zM360 448.004h-32v-104h32zm104 16h-80c-4.416 0-8-3.584-8-8v-120c0-4.416 3.584-8 8-8h80z"/>
  <path d="M433.432 432.004h-24c-4.424 0-8 3.576-8 8s3.576 8 8 8h24c4.424 0 8-3.576 8-8s-3.576-8-8-8"/>
</svg>
