<svg xmlns="http://www.w3.org/2000/svg" viewBox="0 0 295.238 295.238" xml:space="preserve">
  <path style="fill:#f9ba48" d="M295.238 295.238H0v-75.51h80.952v-53.062h133.333v53.062h80.952v75.51z"/>
  <path style="fill:#333" d="M152.381 185.714h-19.048v9.524h9.524v19.048h-9.524v9.524h28.572v-9.524h-9.524zM23.81 247.619h19.047v5.805l-19.047 4.762v18.004h28.571v-9.523H33.333v-1.043l19.048-4.762v-22.767H23.81zm219.047-9.524v9.524h19.048v4.762h-19.048v9.524h19.048v4.762h-19.048v9.523h28.572v-38.095zM192.871 4.952c-6.795 1.105-11.919 7.39-11.919 14.605v11.076l-16.348 9.81c4.21-4.295 6.824-10.157 6.824-16.633 0-13.129-10.681-23.81-23.81-23.81s-23.81 10.681-23.81 23.81c0 7.814 3.838 14.705 9.671 19.048h-19.195v-9.014c0-7.219-5.124-13.5-11.919-14.605-4.181-.676-8.419.49-11.614 3.21a14.25 14.25 0 0 0-5.038 10.886v23.962c0 7.795 6.338 14.133 14.129 14.133h23.967v76.19c0 7.876 6.41 14.286 14.286 14.286 3.657 0 6.995-1.381 9.524-3.648a14.22 14.22 0 0 0 9.524 3.648c7.876 0 14.286-6.41 14.286-14.286V66.824l31.905-17.729a12.03 12.03 0 0 0 6.19-10.514V19.048c0-4.2-1.833-8.167-5.038-10.886-3.196-2.719-7.429-3.881-11.615-3.21m-45.252 4.572c7.876 0 14.286 6.41 14.286 14.286s-6.41 14.286-14.286 14.286-14.286-6.41-14.286-14.286 6.41-14.286 14.286-14.286M200 38.586c0 .905-.495 1.743-1.29 2.186l-36.805 20.443v86.405c0 2.629-2.138 4.762-4.762 4.762s-4.762-2.133-4.762-4.762V100h-9.524v47.619c0 2.629-2.138 4.762-4.762 4.762s-4.762-2.133-4.762-4.762V61.905h-33.49a4.615 4.615 0 0 1-4.605-4.61V33.333c0-1.4.61-2.724 1.681-3.633 1.081-.919 2.457-1.31 3.914-1.062 2.205.362 3.929 2.643 3.929 5.205v18.538h58.462l27.252-16.352V19.557c0-2.562 1.724-4.848 3.929-5.205 1.448-.238 2.833.143 3.914 1.062A4.76 4.76 0 0 1 200 19.047z"/>
</svg>
