<svg xmlns="http://www.w3.org/2000/svg" width="800" height="800" viewBox="0 0 32 32" xml:space="preserve">
  <path d="M21.081 6C23.752 6.031 26 8.766 26 12c0 5.106-6.47 10.969-10.001 13.593C12.466 22.974 6 17.12 6 12c0-3.234 2.248-5.969 4.918-6 2.668.175 3.008.801 5.082 2.879C18.069 6.806 18.418 6.173 21.081 6m-.17-1.994L20.912 4A6.9 6.9 0 0 0 16 6.048 6.9 6.9 0 0 0 11.088 4l.001.006C7.044 3.936 4 7.719 4 12c0 8 11.938 16 11.938 16h.124S28 20 28 12c0-4.287-3.049-8.064-7.089-7.994" style="fill:#0b1719"/>
</svg>
