<svg xmlns="http://www.w3.org/2000/svg" width="800" height="800" viewBox="0 0 32 32" xml:space="preserve"><path d="m9.942 2.228-.092.039-.093.038q.092-.04.185-.077m18.827 20.834-.016.02-.042.056zm.907-2.341c-.017.177-.047.353-.072.53-.023.149-.04.3-.076.447a2.6 2.6 0 0 1-.31.761c-.137.22-.305.419-.466.622a9 9 0 0 1-.229.277.82.82 0 0 1-.685.361.83.83 0 0 1-.585-.242c-.032-.032-.048-.074-.074-.11-.07-.036-.142-.072-.191-.129-.149-.179-.327-.334-.498-.493-.468-.432-.906-.897-1.376-1.329q-.383-.35-.755-.714c-.249-.245-.496-.495-.759-.727-.145-.126-.296-.247-.432-.381q-.158-.157-.311-.317c-.253-.259-.5-.523-.761-.776-.428-.418-.885-.805-1.333-1.202l-.032.025c-.312.269-.63.549-.893.868a2 2 0 0 0-.081.118.79.79 0 0 1-.948.32.8.8 0 0 1-.36-.011c-.187-.051-.41-.193-.493-.378l-.014-.029c-.063-.074-.14-.134-.206-.205a32 32 0 0 1-.593.627c-.253.259-.51.514-.748.785-.21.238-.419.472-.644.697a62 62 0 0 0-1.438 1.516c-.498.536-1 1.07-1.486 1.618a39 39 0 0 1-1.465 1.567c-.243.243-.495.479-.732.727-.225.232-.445.464-.672.693-.415.423-.817.855-1.221 1.291-.168.181-.334.365-.513.536-.125.121-.251.24-.366.37-.174.198-.362.383-.534.583l-.183.214a.85.85 0 0 1-.227.534.824.824 0 0 1-1.148 0c-.172-.164-.33-.345-.5-.515-.109-.108-.206-.227-.315-.334q-.192-.183-.383-.362a14 14 0 0 0-.685-.623c-.219-.179-.442-.355-.659-.536-.244-.206-.464-.444-.681-.678a.82.82 0 0 1-.215-.623.6.6 0 0 1 .086-.429 8 8 0 0 1 .714-.891c.351-.372.68-.763 1.038-1.127.474-.478.933-.97 1.393-1.461.493-.529.976-1.067 1.474-1.589.497-.521.978-1.055 1.472-1.578.236-.251.495-.479.738-.725.206-.208.404-.423.61-.629q.59-.59 1.195-1.163c.225-.213.442-.432.678-.634q.386-.324.744-.676c.176-.174.361-.334.547-.498.2-.176.393-.359.588-.541a.7.7 0 0 1-.134-.202.75.75 0 0 1-.273-.173c-.296-.294-.313-.819 0-1.112q.16-.146.296-.312c.125-.149.264-.283.398-.423q.365-.39.722-.787a40 40 0 0 0-1.484-1.316 17 17 0 0 1-1.62-1.531c-.245-.268-.483-.547-.748-.797-.293-.274-.591-.54-.883-.812a27 27 0 0 1-1.666-1.671.8.8 0 0 1-.178-.341.8.8 0 0 1-.126-.404c0-.232.096-.398.238-.572.17-.211.338-.432.534-.619.14-.13.289-.255.444-.364.115-.082.236-.152.347-.237.123-.094.241-.153.378-.213a3.6 3.6 0 0 1 1.081-.262Q10.999 2 11.066 2c.373 0 .754.105 1.111.197.359.093.714.204 1.044.377.308.162.596.363.895.544.632.381 1.276.746 1.903 1.138.325.204.646.417.982.6.321.176.638.368.936.581.497.353.984.719 1.501 1.044l.103-.089c.274-.249.561-.483.851-.713.642-.51 1.227-1.091 1.842-1.631a.8.8 0 0 1 .465-.204c-.028-.243.041-.501.21-.67a.78.78 0 0 1 .555-.23c.219 0 .395.091.555.23.436.381.831.793 1.229 1.212q.571.598 1.157 1.182c.347.347.715.668 1.074 1.004.198.185.395.374.604.547.181.153.362.31.513.495q.149.15.208.355a.8.8 0 0 1 0 .427.82.82 0 0 1-.37.481.8.8 0 0 1-.307.103c-.563.693-1.171 1.352-1.735 2.044-.2.286-.383.587-.593.866-.145.192-.301.375-.453.561.281.562.564 1.126.9 1.657.344.54.729 1.052 1.078 1.588.215.327.395.676.61 1.002.2.306.413.606.602.919.389.642.757 1.31 1.008 2.018.068.193.087.404.106.604.018.161.041.322.026.482m-1.565.478-.005.041-.012.027.012-.027-.005.04.005-.041zM26.348 11.08l-.003.004-.041.054zm-2.883-6.298a.6.6 0 0 1-.179.318q-.206.173-.415.341c.676.616 1.353 1.232 2.008 1.869.514.499 1.032.994 1.57 1.466l.113-.139-.045.06.087-.114.025-.031-.011.014.162-.211-.113.147.146-.188.109-.142-.072.092q.04-.052.077-.104c-.207-.198-.419-.39-.627-.581-.359-.328-.67-.71-1.006-1.059-.585-.608-1.2-1.18-1.829-1.738m-3.268 2.991.025-.032-.023.028zm-3.552 9.184c-.234-.206-.47-.41-.696-.626-.287-.276-.551-.568-.846-.838-.128-.117-.263-.227-.392-.343l-.322.278c-.215.187-.449.357-.642.566a10 10 0 0 1-.623.629q-.65.594-1.276 1.214c-.202.198-.411.391-.617.587q-.355.345-.697.702c-.202.208-.432.387-.638.591q-.383.377-.753.765c-.508.529-1.038 1.035-1.54 1.567q-.732.78-1.467 1.559c-.73.768-1.485 1.521-2.147 2.351.314.334.635.661.993.949l.006.005.055.042L5 26.921c.146.115.283.235.422.362.196.181.404.353.602.532q.143.127.281.259c.166-.186.321-.379.494-.557.121-.123.249-.236.37-.357.16-.162.327-.317.485-.483.206-.213.4-.436.606-.648.43-.446.861-.891 1.28-1.346.474-.511.993-.98 1.465-1.495a321 321 0 0 0 2.932-3.239c.434-.487.88-.963 1.321-1.44.471-.509.927-1.031 1.387-1.552m10.586 4.41c.168.149.331.306.499.457q.079-.08.153-.164a2 2 0 0 0 .172-.305q.044-.122.069-.25l.045-.346a2.6 2.6 0 0 0-.069-.821 3 3 0 0 0-.131-.361 12 12 0 0 0-.851-1.546c-.164-.257-.336-.508-.498-.766-.179-.281-.342-.57-.523-.849-.357-.553-.746-1.082-1.127-1.62a16 16 0 0 1-1.108-1.829.82.82 0 0 1 .014-.787.78.78 0 0 1 .202-.479c.102-.109.202-.217.296-.333.352-.475.648-.99 1.048-1.427l.085-.091c-.229-.238-.473-.463-.707-.695-.325-.323-.644-.653-.972-.974a14 14 0 0 0-1.01-.882 40 40 0 0 1-1.057-.904c-.112.107-.223.214-.342.314-.283.236-.57.47-.844.717-.137.123-.278.246-.401.384a.753.753 0 0 1-1.16.112c-.008-.008-.011-.02-.019-.029a.7.7 0 0 1-.275-.163 2 2 0 0 0-.108-.095q-.376-.286-.748-.577-.322-.243-.642-.488c-.376-.273-.8-.468-1.194-.714-.402-.255-.814-.495-1.223-.738-.415-.249-.842-.481-1.257-.731-.365-.219-.729-.458-1.114-.645a6 6 0 0 0-1.098-.261 2 2 0 0 0-.27-.011q-.207.037-.405.108a4 4 0 0 0-.618.385 2.3 2.3 0 0 0-.306.299l-.079.103.073.082c.495.555.993 1.114 1.523 1.635.274.27.553.534.821.81.262.27.519.546.787.812.515.515 1.082.978 1.64 1.446q.384.32.772.64c.209.173.407.357.616.529.072.052.144.104.205.166a.774.774 0 0 1 .1.955.8.8 0 0 1-.209.482q-.33.341-.666.676c-.167.165-.338.329-.494.507.804.704 1.525 1.495 2.325 2.203.4.355.787.719 1.191 1.07.172.147.34.296.5.457l.095.097.25-.251c.242-.243.479-.496.749-.712a.8.8 0 0 1 .557-.23l.024.003a.74.74 0 0 1 .34-.094c.193 0 .387.073.534.217q.245.241.495.479c.54.521 1.074 1.046 1.614 1.565.493.474 1.023.904 1.521 1.37.262.245.515.498.78.742.251.23.506.457.751.691.229.215.445.445.679.655m-.627-12.784.013-.017-.055.071z" style="fill:#111918"/></svg>
