<svg width="800" height="800" viewBox="0 0 32 32" xmlns="http://www.w3.org/2000/svg">
  <g data-name="Layer 24">
    <path d="M10 12H6a1 1 0 0 1-1-1V7a1 1 0 0 1 1-1h4a1 1 0 0 1 1 1v4a1 1 0 0 1-1 1m-3-2h2V8H7Z"/>
    <path d="M6 8.47V11h4V8.47a2.11 2.11 0 0 1-2 1 2.11 2.11 0 0 1-2-1m15 7V18h4v-2.53a2.11 2.11 0 0 1-2 1 2.11 2.11 0 0 1-2-1m-15 7V25h4v-2.53a2.11 2.11 0 0 1-2 1 2.11 2.11 0 0 1-2-1"/>
    <path d="M29 10H10a1 1 0 0 1 0-2h19a1 1 0 0 1 0 2M6 10H3a1 1 0 0 1 0-2h3a1 1 0 0 1 0 2m4 16H6a1 1 0 0 1-1-1v-4a1 1 0 0 1 1-1h4a1 1 0 0 1 1 1v4a1 1 0 0 1-1 1m-3-2h2v-2H7Z"/>
    <path d="M6 24H3a1 1 0 0 1 0-2h3a1 1 0 0 1 0 2m23 0H10a1 1 0 0 1 0-2h19a1 1 0 0 1 0 2m-4-5h-4a1 1 0 0 1-1-1v-4a1 1 0 0 1 1-1h4a1 1 0 0 1 1 1v4a1 1 0 0 1-1 1m-3-2h2v-2h-2Z"/>
    <path d="M21 17H3a1 1 0 0 1 0-2h18a1 1 0 0 1 0 2m8 0h-4a1 1 0 0 1 0-2h4a1 1 0 0 1 0 2"/>
  </g>
</svg>
