<svg xmlns="http://www.w3.org/2000/svg" width="800" height="800" viewBox="0 0 128 128" xml:space="preserve"><path fill="#FFA000" d="M112 36a11.995 11.995 0 0 0-11.027 16.727L84 60 69.801 34.445C73.48 32.391 76 28.508 76 24c0-6.625-5.371-12-12-12s-12 5.375-12 12c0 4.508 2.52 8.391 6.199 10.445L44 60l-16.973-7.273A11.995 11.995 0 0 0 16 36C9.371 36 4 41.375 4 48s5.371 12 12 12c.93 0 1.822-.133 2.695-.328L28 100v8c0 4.422 3.582 8 8 8h56c4.418 0 8-3.578 8-8v-8l9.309-40.328c.867.203 1.761.328 2.691.328 6.629 0 12-5.375 12-12s-5.371-12-12-12M64 20c2.207 0 4 1.797 4 4s-1.793 4-4 4-4-1.797-4-4 1.793-4 4-4M12 48c0-2.203 1.793-4 4-4s4 1.797 4 4-1.793 4-4 4-4-1.797-4-4m80 60H36v-8h56zm1.633-16H34.367L27.34 61.563l13.508 5.789a7.986 7.986 0 0 0 10.144-3.469L64 40.477l13.008 23.406a7.986 7.986 0 0 0 10.144 3.469l13.508-5.789zM112 52c-2.207 0-4-1.797-4-4s1.793-4 4-4 4 1.797 4 4-1.793 4-4 4"/></svg>
