<svg xmlns="http://www.w3.org/2000/svg" width="256" height="252" viewBox="0 0 256 252" xml:space="preserve">
  <path d="M59.406 88.486 50.54 60.801h50.68L90.352 88.486zm-38.839 58.287c0-21.393 11.841-39.869 29.63-49.078h50.737c17.789 9.209 29.973 27.685 29.973 49.078 0 30.316-24.711 55.027-55.027 55.027-30.66.001-55.313-24.71-55.313-55.027m60.29 13.214c0 3.26-2.974 4.919-7.265 4.919-4.976 0-9.553-1.659-12.87-3.318l-2.288 8.866c2.917 1.659 7.894 2.974 13.156 3.318v7.264h7.551v-7.894c8.923-1.316 13.843-7.265 13.843-14.186s-3.661-11.154-12.87-14.472c-6.578-2.288-9.209-3.947-9.209-6.578 0-2.002 1.659-4.29 6.578-4.29 5.606 0 9.209 1.659 11.211 2.631l2.288-8.58c-2.631-1.316-5.949-2.288-11.211-2.631v-6.921H72.22v7.207c-8.237 1.659-13.156 6.921-13.156 13.843 0 7.608 5.606 11.555 13.843 14.186 5.604 2.003 8.236 3.661 7.95 6.636m117.751-68.766a4.592 4.592 0 1 1 6.623-6.361 4.592 4.592 0 0 1-6.623 6.361m30.655-8.584a4.59 4.59 0 1 0-6.36-6.621 4.59 4.59 0 0 0 6.36 6.621m-57.38-25.862a4.59 4.59 0 1 0-6.36-6.621 4.59 4.59 0 0 0 6.36 6.621m67.211 3.333a4.59 4.59 0 1 0-6.36-6.621 4.59 4.59 0 0 0 6.36 6.621m-34.82-35.51a4.59 4.59 0 1 0-6.36-6.621 4.59 4.59 0 0 0 6.36 6.621m25.583 10.434a4.59 4.59 0 1 0-6.36-6.621 4.59 4.59 0 0 0 6.36 6.621m-47.421-.771a4.59 4.59 0 1 0-6.36-6.621 4.59 4.59 0 0 0 6.36 6.621m7.743 27.571-16.368 15.724-1.58 6.822 6.88-1.305 16.368-15.724c4.637 2.618 10.782 2.02 15.012-2.044 5.15-4.947 5.309-12.88.362-18.03s-12.88-5.309-18.03-.362c-4.23 4.065-5.25 9.997-2.644 14.919m63.789-7.112c0 21.672-13.201 40.348-31.968 48.417V119h-15.232v88.777c0 17.087-13.772 30.858-30.859 30.858h-26.12v11.181H2V215h148v13.484l26.675-.05a20.57 20.57 0 0 0 20.657-20.657V119H182v-15.814c-18.828-8.041-32.083-26.75-32.083-48.466 0-29.073 23.463-52.536 52.536-52.536 28.818 0 52.536 23.462 51.515 52.536m-12.221-20.618c-11.375-21.68-38.232-30.052-59.912-18.677s-30.052 38.232-18.677 59.912 38.232 30.052 59.912 18.677 30.052-38.232 18.677-59.912"/>
</svg>
