<svg xmlns="http://www.w3.org/2000/svg" viewBox="0 0 308.847 308.847" xml:space="preserve">
  <path d="M61.423 0c-22.607 0-41 18.393-41 41s18.393 41 41 41 41-18.393 41-41-18.392-41-41-41m0 64c-12.683 0-23-10.318-23-23s10.317-23 23-23 23 10.318 23 23-10.316 23-23 23m218.001-15.017h-152a9 9 0 0 0-9 9 9 9 0 0 0 9 9h152a9 9 0 0 0 9-9 9 9 0 0 0-9-9M127.423 33.017h152a9 9 0 0 0 9-9 9 9 0 0 0-9-9h-152a9 9 0 0 0 0 18m-66 80.406c-22.607 0-41 18.393-41 41s18.393 41 41 41 41-18.393 41-41-18.392-41-41-41m0 64c-12.683 0-23-10.318-23-23s10.317-23 23-23 23 10.318 23 23-10.316 23-23 23m218.001-15.017h-152c-4.971 0-9 4.029-9 9s4.029 9 9 9h152c4.971 0 9-4.029 9-9s-4.029-9-9-9m0-33.966h-152c-4.971 0-9 4.029-9 9s4.029 9 9 9h152c4.971 0 9-4.029 9-9s-4.029-9-9-9M61.423 226.847c-22.607 0-41 18.393-41 41s18.393 41 41 41 41-18.393 41-41-18.392-41-41-41m0 64c-12.683 0-23-10.318-23-23s10.317-23 23-23 23 10.318 23 23-10.316 23-23 23m218.001-15.017h-152c-4.971 0-9 4.029-9 9s4.029 9 9 9h152c4.971 0 9-4.029 9-9s-4.029-9-9-9m0-33.967h-152a9 9 0 0 0-9 9 9 9 0 0 0 9 9h152a9 9 0 0 0 9-9 9 9 0 0 0-9-9"/>
  <circle cx="61.423" cy="41" r="8.122"/>
  <circle cx="61.423" cy="154.423" r="8.122"/>
</svg>
