<svg xmlns="http://www.w3.org/2000/svg" viewBox="0 0 512.001 512.001" xml:space="preserve">
  <path d="M459.102 274.658v-66.057c0-21.692-17.647-39.34-39.34-39.34H263.033a78.7 78.7 0 0 0 2.699-20.469c0-6.653-.839-13.112-2.404-19.285 14.402 16.775 35.739 27.433 59.531 27.433 43.268 0 78.47-35.201 78.47-78.47S366.127 0 322.858 0s-78.47 35.201-78.47 78.47a78.4 78.4 0 0 0 2.404 19.285c-14.402-16.775-35.739-27.433-59.531-27.433-43.268 0-78.469 35.202-78.469 78.47 0 7.005.923 13.865 2.699 20.469h-51.4c-21.692 0-39.339 17.647-39.339 39.34v264.06c0 21.692 17.647 39.339 39.339 39.339h359.671c21.692 0 39.34-17.647 39.34-39.339v-66.057c18.074-2.112 32.148-17.51 32.148-36.141v-59.662c.001-18.634-14.074-34.032-32.148-36.143M322.858 33.089c25.023 0 45.381 20.358 45.381 45.381s-20.358 45.381-45.381 45.381-45.381-20.358-45.381-45.381 20.358-45.381 45.381-45.381M187.262 103.41c25.023 0 45.381 20.358 45.381 45.381 0 7.216-1.663 14.172-4.859 20.469H146.74c-3.195-6.298-4.859-13.253-4.859-20.469.001-25.022 20.358-45.381 45.381-45.381m238.751 369.25a6.257 6.257 0 0 1-6.252 6.25H60.09a6.257 6.257 0 0 1-6.25-6.25V208.6a6.26 6.26 0 0 1 6.25-6.252h359.671a6.26 6.26 0 0 1 6.252 6.252v65.802H309.26c-19.42 0-35.22 15.8-35.22 35.22v62.017c0 19.42 15.8 35.22 35.22 35.22h116.753zm32.149-102.199a3.31 3.31 0 0 1-3.308 3.308H310.438a3.31 3.31 0 0 1-3.309-3.308v-59.662a3.313 3.313 0 0 1 3.309-3.308h144.416a3.31 3.31 0 0 1 3.308 3.308z"/>
  <circle cx="340.154" cy="340.627" r="21.92"/>
</svg>
